<svg width="68" height="52" viewBox="0 0 68 52" fill="none" xmlns="http://www.w3.org/2000/svg">
<path d="M0 19.608V38.75C0 42.1315 1.3433 45.3745 3.73439 47.7656C6.12548 50.1567 9.36849 51.5 12.75 51.5H55.25C58.6315 51.5 61.8745 50.1567 64.2656 47.7656C66.6567 45.3745 68 42.1315 68 38.75V19.608L35.7425 34.126C35.1946 34.3723 34.6007 34.4996 34 34.4996C33.3993 34.4996 32.8054 34.3723 32.2575 34.126L0 19.608ZM0.314499 10.428L34 25.592L67.6855 10.428C67.0455 7.60834 65.4662 5.08992 63.2066 3.28595C60.947 1.48199 58.1414 0.499609 55.25 0.5H12.75C9.85863 0.499609 7.05298 1.48199 4.79339 3.28595C2.5338 5.08992 0.954457 7.60834 0.314499 10.428Z" fill="black"/>
</svg>
